<?xml version="1.0" standalone="no"?><!DOCTYPE svg PUBLIC "-//W3C//DTD SVG 1.1//EN" "http://www.w3.org/Graphics/SVG/1.1/DTD/svg11.dtd"><svg t="1695222097227" class="icon" viewBox="0 0 1024 1024" version="1.1" xmlns="http://www.w3.org/2000/svg" p-id="955" xmlns:xlink="http://www.w3.org/1999/xlink" width="200" height="200"><path d="M0 0h1024v1024H0z" fill="#202425" opacity=".01" p-id="956"></path><path d="M1001 512c0 270.068-218.932 489-489 489S23 782.068 23 512 241.932 23 512 23s489 218.932 489 489z" fill="#19A15F" p-id="957"></path><path d="M512 23c180.978 0 338.975 98.324 423.527 244.5C850.975 413.676 692.977 512 512 512c-180.978 0-338.975-98.324-423.527-244.5C172.99 121.359 331.023 23 512 23z" fill="#A1D06B" p-id="958"></path><path d="M512 226.293l484.411 345.43c-12.755 86.73-41.707 160.812-86.855 222.246-45.148 61.435-99.743 110.745-163.785 147.932L338.603 750.66l33.116-193.08-140.28-136.74 202.697-15.878L512 226.292z" fill="#128D51" opacity=".477" p-id="959"></path><path d="M512 659.5l-173.397 91.16 33.116-193.08-140.28-136.74 193.863-28.17L512 217l86.698 175.67 193.864 28.17L652.28 557.58l33.116 193.08z" fill="#FFFFFF" p-id="960"></path></svg>